<svg xmlns="http://www.w3.org/2000/svg" viewBox="0 0 64 64" role="img" aria-label="오현과 혜선 모바일 청첩장">
  <rect width="64" height="64" rx="10" fill="#fbfaf7" />
  <rect x="8" y="8" width="48" height="48" rx="2" fill="none" stroke="#c9c5bc" stroke-width="2" stroke-dasharray="4 4" />
  <path d="M28.5 29.5c-6.3-.5-11-4.1-13.7-10.7 6.8.8 11.8 4 15 9.7" fill="none" stroke="#9a6570" stroke-linecap="round" stroke-linejoin="round" stroke-width="2.4" />
  <path d="M35.5 29.5c6.3-.5 11-4.1 13.7-10.7-6.8.8-11.8 4-15 9.7" fill="none" stroke="#9a6570" stroke-linecap="round" stroke-linejoin="round" stroke-width="2.4" />
  <path d="M29 32c-7.6.8-13.3 4.8-17 11.8 7.4-.3 13.5-3.5 18.2-9.5" fill="none" stroke="#9a6570" stroke-linecap="round" stroke-linejoin="round" stroke-width="2.4" />
  <path d="M35 32c7.6.8 13.3 4.8 17 11.8-7.4-.3-13.5-3.5-18.2-9.5" fill="none" stroke="#9a6570" stroke-linecap="round" stroke-linejoin="round" stroke-width="2.4" />
  <path d="M25.5 34.5c3.3-5.2 9.6-5.2 13 0M38.5 34.5c-3.3-5.2-9.6-5.2-13 0M27.5 36.3 19 46M36.5 36.3 45 46" fill="none" stroke="#171717" stroke-linecap="round" stroke-linejoin="round" stroke-width="2" />
</svg>
